<svg width="87" height="81" viewBox="0 0 87 81" fill="none" xmlns="http://www.w3.org/2000/svg">
<path fill-rule="evenodd" clip-rule="evenodd" d="M40.4983 4.15023e-05C46.2727 -0.0193683 50.3264 6.77338 52.9242 11.9864C55.426 17.0065 50.6457 24.814 54.7527 28.6037C58.8557 32.3897 66.6814 25.7592 71.2743 28.9187C74.7343 31.2989 71.3444 37.5826 73.2674 41.3402C76.4084 47.4782 91.1244 53.0278 85.8814 57.4625C78.1214 64.0262 65.8827 55.0797 55.8151 56.102C53.4457 56.3426 52.1802 59.1649 50.6826 61.0365C48.5662 63.6816 47.5692 67.1122 45.13 69.456C42.0406 72.4246 38.5094 74.9143 34.5583 76.5308C29.4099 78.6371 23.598 82.5357 18.4779 80.3599C13.7326 78.3433 10.7075 71.8288 11.3437 66.6653C12.177 59.9007 21.3236 56.4058 22.2605 49.6551C22.7582 46.0695 17.1302 44.7204 14.7671 41.9995C9.64047 36.0967 0.131865 31.8791 0.0007207 24.0254C-0.0939158 18.358 9.15435 17.5834 14.3227 15.3847C18.7125 13.5173 23.987 14.4898 28.1043 12.0698C33.1061 9.13001 34.7124 0.0194897 40.4983 4.15023e-05Z" fill="#67753A"/>
</svg>
